<svg xmlns="http://www.w3.org/2000/svg" viewBox="0 0 64 64" width="64" height="64" shape-rendering="crispEdges">
  <rect width="64" height="64" fill="#141a30"/>

  <!-- sparkles -->
  <g fill="#f2a53c">
    <rect x="8" y="10" width="2" height="6"/><rect x="6" y="12" width="6" height="2"/>
    <rect x="54" y="9"  width="2" height="6"/><rect x="52" y="11" width="6" height="2"/>
    <rect x="6" y="40" width="2" height="6"/><rect x="4" y="42" width="6" height="2"/>
    <rect x="53" y="43" width="2" height="6"/><rect x="51" y="45" width="6" height="2"/>
    <rect x="31" y="4"  width="2" height="5"/><rect x="29" y="6"  width="6" height="2"/>
    <rect x="47" y="30" width="2" height="4"/><rect x="46" y="31" width="4" height="2"/>
  </g>

  <!-- server rack body -->
  <rect x="16" y="9" width="32" height="30" rx="3" fill="#2c4a83" stroke="#1a2c52" stroke-width="2"/>
  <rect x="16" y="9" width="32" height="4" rx="2" fill="#37589f"/>

  <!-- unit 1 -->
  <rect x="19" y="14" width="26" height="6" rx="1" fill="#3a5ea6"/>
  <rect x="21" y="16" width="3" height="2" fill="#63e06a"/>
  <rect x="26" y="16" width="15" height="2" fill="#233f6e"/>

  <!-- unit 2 -->
  <rect x="19" y="22" width="26" height="6" rx="1" fill="#3a5ea6"/>
  <rect x="21" y="24" width="3" height="2" fill="#63e06a"/>
  <rect x="26" y="24" width="15" height="2" fill="#233f6e"/>

  <!-- unit 3 -->
  <rect x="19" y="30" width="26" height="6" rx="1" fill="#3a5ea6"/>
  <rect x="21" y="32" width="3" height="2" fill="#63e06a"/>
  <rect x="26" y="32" width="15" height="2" fill="#233f6e"/>

  <!-- GTL wordmark -->
  <text x="32" y="57" text-anchor="middle" font-family="'Courier New', ui-monospace, monospace" font-weight="700" font-size="16" letter-spacing="1" fill="#f3e4c4">GTL</text>
</svg>
