<svg xmlns="http://www.w3.org/2000/svg" viewBox="0 0 64 64" width="64" height="64">
  <g fill="#22a8f0">
    <rect x="26.5" y="1.5" width="11" height="16" rx="2.5" transform="rotate(0 32 32)"/>
    <rect x="26.5" y="1.5" width="11" height="16" rx="2.5" transform="rotate(45 32 32)"/>
    <rect x="26.5" y="1.5" width="11" height="16" rx="2.5" transform="rotate(90 32 32)"/>
    <rect x="26.5" y="1.5" width="11" height="16" rx="2.5" transform="rotate(135 32 32)"/>
    <rect x="26.5" y="1.5" width="11" height="16" rx="2.5" transform="rotate(180 32 32)"/>
    <rect x="26.5" y="1.5" width="11" height="16" rx="2.5" transform="rotate(225 32 32)"/>
    <rect x="26.5" y="1.5" width="11" height="16" rx="2.5" transform="rotate(270 32 32)"/>
    <rect x="26.5" y="1.5" width="11" height="16" rx="2.5" transform="rotate(315 32 32)"/>
    <circle cx="32" cy="32" r="23"/>
  </g>
  <circle cx="32" cy="32" r="16.5" fill="none" stroke="#ffffff" stroke-width="5"/>
  <path d="M23 33 L29.5 39.5 L43 24.5" fill="none" stroke="#ffffff" stroke-width="5" stroke-linecap="round" stroke-linejoin="round"/>
</svg>
